<svg xmlns="http://www.w3.org/2000/svg" width="30.037" height="30.023" viewBox="0 0 30.037 30.023"><defs><style>.a{fill:#121217;}</style></defs><path class="a" d="M4.023,18.7a9.222,9.222,0,0,0,1.608-4.975V11.962a6.819,6.819,0,0,1,6.683-6.8h.222a6.83,6.83,0,0,1,6.706,6.8v1.759a7.789,7.789,0,0,0,.83,3.56,1.173,1.173,0,0,0,2.112-1.022,5.484,5.484,0,0,1-.6-2.538V11.962a9.191,9.191,0,0,0-8.037-9.079V1.173a1.173,1.173,0,0,0-2.347,0V2.895a9.162,9.162,0,0,0-7.92,9.068v1.759a7.022,7.022,0,0,1-1.294,3.8A14.137,14.137,0,0,0,.06,22.336,3.52,3.52,0,0,0,3.52,26.5h5.4a3.52,3.52,0,0,0,7.04,0c0-.025,0-.049,0-.074a1.172,1.172,0,0,0-.407-2.272H3.52a1.174,1.174,0,0,1-1.153-1.391A12,12,0,0,1,4.023,18.7ZM13.61,26.5a1.173,1.173,0,0,1-2.347,0Zm16.426-2.052a1.173,1.173,0,0,1-1.173,1.173H25.636V28.85a1.173,1.173,0,0,1-2.347,0V25.625H20.063a1.173,1.173,0,1,1,0-2.346h3.227V20.054a1.173,1.173,0,0,1,2.347,0v3.225h3.227A1.173,1.173,0,0,1,30.036,24.452Zm0,0" transform="translate(0.001)"/></svg>