<svg id="Group_236" data-name="Group 236" xmlns="http://www.w3.org/2000/svg" width="35.117" height="36.483" viewBox="0 0 35.117 36.483">
  <text id="_" data-name="€" transform="translate(12.485 24.361)" fill="#de0000" font-size="17" font-family="ArialMT, Arial" letter-spacing="0.07em"><tspan x="0" y="0">€</tspan></text>
  <g id="casino-chip">
    <path id="Path_3053" data-name="Path 3053" d="M35.117,18.241C35.117,8.166,27.256,0,17.559,0S0,8.167,0,18.241,7.861,36.483,17.559,36.483,35.117,28.316,35.117,18.241ZM2.1,19.314H5.415A12.867,12.867,0,0,0,8.246,26.4L5.9,28.833a16.358,16.358,0,0,1-3.8-9.518ZM5.9,7.65l2.343,2.434a12.867,12.867,0,0,0-2.831,7.085H2.1A16.358,16.358,0,0,1,5.9,7.65Zm27.113,9.518H29.7a12.867,12.867,0,0,0-2.831-7.085L29.214,7.65A16.358,16.358,0,0,1,33.016,17.168ZM17.559,28.757A10.336,10.336,0,0,1,7.437,18.241,10.336,10.336,0,0,1,17.559,7.726,10.336,10.336,0,0,1,27.681,18.241,10.336,10.336,0,0,1,17.559,28.757ZM25.411,8.566a11.9,11.9,0,0,0-6.819-2.941V2.183a15.134,15.134,0,0,1,9.162,3.95ZM16.526,5.626A11.9,11.9,0,0,0,9.706,8.566L7.364,6.133a15.135,15.135,0,0,1,9.162-3.95ZM9.706,27.917a11.9,11.9,0,0,0,6.819,2.941V34.3a15.135,15.135,0,0,1-9.162-3.95Zm8.885,2.941a11.9,11.9,0,0,0,6.819-2.941l2.343,2.434a15.135,15.135,0,0,1-9.162,3.95V30.857Zm8.28-4.458A12.867,12.867,0,0,0,29.7,19.314h3.314a16.358,16.358,0,0,1-3.8,9.518Z" fill="#de0000"/>
  </g>
</svg>
