<svg xmlns="http://www.w3.org/2000/svg" width="118.759" height="118.76" viewBox="0 0 118.759 118.76"><path d="M116.517,18.049l1.564-1.564a2.32,2.32,0,1,0-3.28-3.28l-1.564,1.564-1.563-1.563a2.32,2.32,0,0,0-1.64-.679h-2.551L95.635.679A2.32,2.32,0,0,0,94,0H8.354A8.363,8.363,0,0,0,0,8.353V51.821a8.363,8.363,0,0,0,8.353,8.353H28.562L14.973,73.763a8.354,8.354,0,0,0,0,11.814l30.736,30.736a8.354,8.354,0,0,0,11.814,0l23.02-23.02a2.32,2.32,0,0,0-3.28-3.28l-23.02,23.02a3.714,3.714,0,0,1-5.253,0L18.253,82.3a3.714,3.714,0,0,1,0-5.253L78.131,17.166h30.942l.883.883-5.364,5.364a6.962,6.962,0,1,0,3.28,3.28l5.364-5.364.883.883V53.155l-22.1,22.1a2.32,2.32,0,0,0,3.28,3.28L118.08,55.756a2.32,2.32,0,0,0,.679-1.64V21.252a2.32,2.32,0,0,0-.679-1.64ZM41.654,41.62a2.32,2.32,0,1,1,2.32-2.32A2.323,2.323,0,0,1,41.654,41.62ZM77.17,12.527a2.32,2.32,0,0,0-1.64.679L48.556,40.18a6.974,6.974,0,1,0-6.02,6.02L33.2,55.535H8.354A3.719,3.719,0,0,1,4.64,51.821V8.353A3.719,3.719,0,0,1,8.354,4.639h84.68l7.888,7.888Zm24.424,19.484A2.319,2.319,0,1,1,103,27.852a2.089,2.089,0,0,0,.432.432,2.316,2.316,0,0,1-1.839,3.727Z" transform="translate(-0.001 0)"/><path d="M281.471,237.027a2.32,2.32,0,0,0,1.64-.679l5.248-5.249a2.32,2.32,0,0,0-3.28-3.28l-3.608,3.608L269.99,219.946a2.32,2.32,0,0,0-3.28,3.28l13.121,13.121a2.321,2.321,0,0,0,1.64.679Z" transform="translate(-204.325 -168.408)"/><path d="M338.614,162.357a2.32,2.32,0,0,0-3.28,0l-2.952,2.952-3.28-3.28,2.952-2.952a2.32,2.32,0,0,0-3.28-3.28l-2.952,2.952-3.28-3.28,2.952-2.952a2.32,2.32,0,0,0-3.28-3.28l-4.592,4.592a2.32,2.32,0,0,0,0,3.28l13.121,13.121a2.319,2.319,0,0,0,3.28,0l4.592-4.592A2.319,2.319,0,0,0,338.614,162.357Z" transform="translate(-243.427 -114.099)"/><path d="M238.014,279.178a2.319,2.319,0,1,0,2.106-4.133l-17.385-8.857a2.319,2.319,0,0,0-3.119,3.119l8.857,17.385a2.319,2.319,0,0,0,4.134-2.106l-.711-1.4,4.724-4.724Zm-8.334-.333-2.692-5.284,5.284,2.692Z" transform="translate(-168.481 -204.251)"/><path d="M164.582,332.965a2.32,2.32,0,1,0,3.28,3.28l3.28-3.28a6.958,6.958,0,0,0-9.425-10.222,2.3,2.3,0,0,0-.245.21l-.172.171a2.32,2.32,0,1,1-3.28-3.28l3.28-3.28a2.32,2.32,0,0,0-3.28-3.28l-3.28,3.28a6.958,6.958,0,0,0,9.836,9.846l.005,0a2.319,2.319,0,1,1,3.28,3.28Z" transform="translate(-117.286 -240.096)"/><path d="M110.342,63.564a2.32,2.32,0,0,0-3.16.88l-14.961,26.5a2.319,2.319,0,1,0,4.04,2.281l14.961-26.5A2.319,2.319,0,0,0,110.342,63.564Z" transform="translate(-70.6 -48.59)"/><path d="M79.088,66.953a6.959,6.959,0,1,0-6.959,6.959A6.967,6.967,0,0,0,79.088,66.953Zm-9.28,0a2.32,2.32,0,1,1,2.32,2.32A2.323,2.323,0,0,1,69.808,66.953Z" transform="translate(-50.053 -46.078)"/><path d="M364.311,353.319a2.321,2.321,0,1,0,1.64.68A2.332,2.332,0,0,0,364.311,353.319Z" transform="translate(-278.028 -271.367)"/></svg>