<svg xmlns="http://www.w3.org/2000/svg" width="43.515" height="38.267" viewBox="0 0 43.515 38.267"><defs><style>.a{fill:#DE0000;}</style></defs><path class="a" d="M38.84,30.872H4.674A4.68,4.68,0,0,0,0,35.546V57.983a4.68,4.68,0,0,0,4.674,4.674H15.682a.426.426,0,0,1,.342.173l4.016,5.445a2.106,2.106,0,0,0,1.7.864h.01a2.106,2.106,0,0,0,1.7-.848l4.107-5.463a.427.427,0,0,1,.34-.17H38.84a4.68,4.68,0,0,0,4.674-4.674V35.546a4.68,4.68,0,0,0-4.674-4.674Zm2.125,27.111a2.117,2.117,0,0,1-.081.579l-13.1-11.481L40.965,36.145ZM38.84,33.422a2.111,2.111,0,0,1,1.067.288L23.118,47.643a2.126,2.126,0,0,1-2.714,0L3.612,33.708a2.111,2.111,0,0,1,1.062-.286ZM2.631,58.562a2.117,2.117,0,0,1-.081-.579V36.139L15.731,47.078ZM25.517,61.3,21.753,66.3l-3.677-4.985a2.986,2.986,0,0,0-2.394-1.209H4.735L17.718,48.727l1.058.878a4.677,4.677,0,0,0,5.97,0L25.8,48.73l12.98,11.378H27.895A2.99,2.99,0,0,0,25.517,61.3Z" transform="translate(0 -30.872)"/></svg>