<svg xmlns="http://www.w3.org/2000/svg" width="52.355" height="27.906" viewBox="0 0 52.355 27.906"><defs><style>.a{fill:#fff;}</style></defs><g transform="translate(0 -123.5)"><g transform="translate(0 123.5)"><g transform="translate(0 0)"><path class="a" d="M51.313,123.5H1.043A1.07,1.07,0,0,0,0,124.594v25.718a1.07,1.07,0,0,0,1.043,1.094h50.27a1.07,1.07,0,0,0,1.043-1.094V124.594A1.07,1.07,0,0,0,51.313,123.5ZM2.086,129.776c3.293.525,5.837,3.767,5.837,7.678s-2.544,7.153-5.837,7.678Zm23.049,19.442H10.246a11.926,11.926,0,0,0,1.234-1.138,1.133,1.133,0,0,0-.007-1.548,1.009,1.009,0,0,0-1.475.008,9.33,9.33,0,0,1-2.1,1.682,1.105,1.105,0,0,0-.538,1H2.086V147.34c4.446-.528,7.922-4.76,7.922-9.887s-3.476-9.359-7.922-9.887v-1.878H7.352a1.105,1.105,0,0,0,.539.994,9.323,9.323,0,0,1,2.1,1.681,1.009,1.009,0,0,0,1.475.007,1.133,1.133,0,0,0,.007-1.548,11.932,11.932,0,0,0-1.231-1.135H25.135Zm25.135-4.1c-3.242-.576-5.732-3.792-5.732-7.662s2.49-7.086,5.732-7.662Zm0-17.535c-4.4.581-7.818,4.787-7.818,9.873s3.422,9.292,7.818,9.873v1.891H45.1a1.105,1.105,0,0,0-.538-1,9.328,9.328,0,0,1-2.1-1.682,1.009,1.009,0,0,0-1.475-.008,1.133,1.133,0,0,0-.007,1.548,11.939,11.939,0,0,0,1.234,1.138H27.221V125.689H42.214a11.931,11.931,0,0,0-1.231,1.135,1.133,1.133,0,0,0,.007,1.548,1.009,1.009,0,0,0,1.475-.007,9.321,9.321,0,0,1,2.1-1.681,1.105,1.105,0,0,0,.539-.994H50.27Z" transform="translate(0 -123.5)"/><path class="a" d="M128.279,226.85a1.094,1.094,0,0,0-.98,1.2c.047.474.072.958.072,1.44s-.024.963-.071,1.436a1.094,1.094,0,1,0,2.178.218c.055-.545.082-1.1.082-1.654s-.028-1.112-.083-1.658A1.094,1.094,0,0,0,128.279,226.85Z" transform="translate(-114.046 -215.535)"/><path class="a" d="M112.815,282.854a1.094,1.094,0,0,0-1.375.711,12.775,12.775,0,0,1-1.156,2.6,1.094,1.094,0,1,0,1.887,1.109,14.98,14.98,0,0,0,1.355-3.049A1.094,1.094,0,0,0,112.815,282.854Z" transform="translate(-98.685 -265.369)"/><path class="a" d="M110.264,174.981a12.783,12.783,0,0,1,1.157,2.6,1.094,1.094,0,0,0,2.086-.664,14.981,14.981,0,0,0-1.356-3.049,1.094,1.094,0,1,0-1.886,1.11Z" transform="translate(-98.666 -167.878)"/><path class="a" d="M103.189,238.189v-1.094a1.094,1.094,0,0,0-2.189,0v1.094a1.094,1.094,0,0,0,2.189,0Z" transform="translate(-90.488 -223.688)"/><path class="a" d="M363.527,283.567a1.094,1.094,0,0,0-2.086.663,14.98,14.98,0,0,0,1.355,3.049,1.094,1.094,0,0,0,1.887-1.109A12.778,12.778,0,0,1,363.527,283.567Z" transform="translate(-323.823 -265.371)"/><path class="a" d="M356.28,232.123a1.094,1.094,0,0,0,.98-1.2c-.047-.473-.071-.956-.071-1.436s.024-.966.072-1.44a1.094,1.094,0,1,0-2.178-.219c-.055.546-.083,1.1-.083,1.658s.028,1.109.082,1.654a1.093,1.093,0,0,0,1.2.98Z" transform="translate(-318.054 -215.536)"/><path class="a" d="M362.164,178.3a1.093,1.093,0,0,0,1.375-.711,12.792,12.792,0,0,1,1.157-2.6,1.094,1.094,0,1,0-1.886-1.11,14.981,14.981,0,0,0-1.356,3.049A1.1,1.1,0,0,0,362.164,178.3Z" transform="translate(-323.833 -167.88)"/><path class="a" d="M383.094,236A1.094,1.094,0,0,0,382,237.094v1.094a1.094,1.094,0,0,0,2.189,0v-1.094A1.094,1.094,0,0,0,383.094,236Z" transform="translate(-342.241 -223.688)"/></g></g></g></svg>