<svg xmlns="http://www.w3.org/2000/svg" width="85.093" height="96.817" viewBox="0 0 85.093 96.817"><g transform="translate(0 17.208)"><path d="M113.921,133.736a8.5,8.5,0,0,0-6.337-14.182H91.068A55,55,0,0,0,93.4,105.18v-2.835A11.36,11.36,0,0,0,82.056,91H79.22a2.836,2.836,0,0,0-2.751,2.148L74.923,99.33c-2.165,8.657-9.039,18.208-16.153,19.944a8.521,8.521,0,0,0-7.916-5.393H33.836A2.837,2.837,0,0,0,31,116.717v51.056a2.837,2.837,0,0,0,2.836,2.836H50.855a8.518,8.518,0,0,0,7.681-4.85l9.746,3.249a31.133,31.133,0,0,0,9.867,1.6h23.762a8.512,8.512,0,0,0,7.912-11.645,8.5,8.5,0,0,0,4.1-13.883,8.492,8.492,0,0,0,0-11.346ZM53.692,162.1a2.84,2.84,0,0,1-2.836,2.836H36.673V119.554H50.855a2.84,2.84,0,0,1,2.836,2.836Zm48.22-25.528h5.673a2.836,2.836,0,1,1,0,5.673h-5.673a2.836,2.836,0,0,0,0,5.673h5.673a2.836,2.836,0,1,1,0,5.673h-5.673a2.836,2.836,0,1,0,0,5.673,2.836,2.836,0,1,1,0,5.673H78.149a25.473,25.473,0,0,1-8.074-1.31l-10.71-3.57v-35.1c4.449-.845,8.8-3.663,12.736-8.275a41.387,41.387,0,0,0,8.326-15.977l1.008-4.033h.622a5.68,5.68,0,0,1,5.673,5.673v2.835c0,3.808-1.191,11.113-2.715,14.373H79.22a2.836,2.836,0,1,0,0,5.673h28.364a2.836,2.836,0,0,1,0,5.673h-5.673a2.836,2.836,0,1,0,0,5.673Z" transform="translate(-31 -91)"/></g><g transform="translate(11.335 79.904)"><g transform="translate(0 0)"><ellipse cx="2.5" cy="3" rx="2.5" ry="3" transform="translate(0.352 -0.255)"/></g></g><g transform="translate(51.056)"><path d="M303.836,0A2.837,2.837,0,0,0,301,2.836V8.7a2.836,2.836,0,1,0,5.673,0V2.836A2.836,2.836,0,0,0,303.836,0Z" transform="translate(-301)"/></g><g transform="translate(33.005 7.666)"><path d="M214.394,45.384l-4.011-4.011a2.836,2.836,0,1,0-4.011,4.011l4.011,4.011a2.836,2.836,0,0,0,4.011-4.011Z" transform="translate(-205.54 -40.542)"/></g><g transform="translate(65.096 7.666)"><path d="M384.1,41.372a2.836,2.836,0,0,0-4.011,0l-4.011,4.011a2.836,2.836,0,0,0,4.011,4.011l4.011-4.011A2.836,2.836,0,0,0,384.1,41.372Z" transform="translate(-375.247 -40.542)"/></g></svg>