<svg xmlns="http://www.w3.org/2000/svg" width="25.465" height="25.465" viewBox="0 0 25.465 25.465">
  <g id="Group_263" data-name="Group 263" transform="translate(611 -597)">
    <g id="merchandising" transform="translate(-611 597)">
      <g id="Group_250" data-name="Group 250" transform="translate(4.625 6.508)">
        <g id="Group_249" data-name="Group 249">
          <path id="Path_3064" data-name="Path 3064" d="M93.5,130.845a.5.5,0,0,0-.5.5v.024a.5.5,0,1,0,.995,0v-.024A.5.5,0,0,0,93.5,130.845Z" transform="translate(-93.001 -130.845)"/>
        </g>
      </g>
      <g id="Group_252" data-name="Group 252">
        <g id="Group_251" data-name="Group 251">
          <path id="Path_3065" data-name="Path 3065" d="M25.275,5.73,20.649,2.1l-.011-.007-.028-.02-.016-.01-.03-.017-.008,0L16.378.048l-.008,0L16.337.031,16.322.026,16.284.015l-.014,0L16.23,0l-.012,0a.487.487,0,0,0-.054,0H9.3a.5.5,0,0,0-.054,0L9.235,0,9.194.012l-.014,0L9.143.026,9.128.031,9.094.045l-.008,0L4.909,2.038l-.008,0-.03.017-.016.01-.028.02L4.816,2.1.19,5.73A.5.5,0,0,0,0,6.121v7.833a.5.5,0,0,0,.5.5H4.625V24.967a.5.5,0,0,0,.5.5H20.342a.5.5,0,0,0,.5-.5V14.452h4.128a.5.5,0,0,0,.5-.5V6.121A.5.5,0,0,0,25.275,5.73ZM12.446.995h.572V2.161h-.572ZM9.8.995h1.654V2.659a.5.5,0,0,0,.5.5h1.567a.5.5,0,0,0,.5-.5V.995h1.654V2.288a2.934,2.934,0,0,1-5.869,0ZM4.625,13.457H.995v-.535H4.625ZM19.845,24.47H5.62v-.535H19.845ZM24.47,13.457H20.839v-.535H24.47Zm0-1.529H20.839v-.034a.5.5,0,0,0-.995,0V22.941H5.62V8.475a.5.5,0,1,0-.995,0v3.453H.995V6.363L4.625,3.51V4.548a.5.5,0,0,0,.995,0V2.8L8.8,1.285v1a3.929,3.929,0,1,0,7.858,0v-1L19.845,2.8V7.966a.5.5,0,0,0,.995,0V3.51L24.47,6.363Z"/>
        </g>
      </g>
      <g id="Group_254" data-name="Group 254" transform="translate(19.845 8.916)">
        <g id="Group_253" data-name="Group 253">
          <path id="Path_3066" data-name="Path 3066" d="M399.5,179.259a.5.5,0,0,0-.5.5v.024a.5.5,0,0,0,.995,0v-.024A.5.5,0,0,0,399.5,179.259Z" transform="translate(-399.001 -179.259)"/>
        </g>
      </g>
    </g>
    <g id="tag" transform="matrix(0.485, -0.875, 0.875, 0.485, -606.263, 613.482)">
      <g id="Group_256" data-name="Group 256" transform="translate(0 0)">
        <g id="Group_255" data-name="Group 255">
          <path id="Path_3067" data-name="Path 3067" d="M14.478.986A.981.981,0,0,0,13.491,0a.988.988,0,0,0-.7.292c-.079.079-.223.25-.3.345a.235.235,0,0,0,.361.3c.123-.149.225-.266.273-.313a.522.522,0,0,1,.369-.154h0a.512.512,0,0,1,.513.515.522.522,0,0,1-.154.369,8.381,8.381,0,0,1-.829.634,1.486,1.486,0,0,0-1.283-.738H8.308a1.725,1.725,0,0,0-1.227.508L.215,8.623a.735.735,0,0,0,0,1.039l4.6,4.6a.736.736,0,0,0,1.039,0L12.72,7.4a1.724,1.724,0,0,0,.508-1.227V2.735a1.485,1.485,0,0,0-.03-.3,8.977,8.977,0,0,0,.988-.754A.988.988,0,0,0,14.478.986ZM12.759,6.17a1.258,1.258,0,0,1-.371.9L5.523,13.931a.266.266,0,0,1-.376,0l-4.6-4.6a.266.266,0,0,1,0-.376L7.412,2.09a1.258,1.258,0,0,1,.9-.371h3.435a1.017,1.017,0,0,1,.894.533c-.277.183-.587.379-.916.57l-.032-.033a.986.986,0,1,0,.256.445c.286-.167.561-.337.815-.5V6.17ZM10.782,3.591a.234.234,0,0,0,.315.1q.206-.1.41-.215a.516.516,0,1,1-.218-.415q-.2.108-.4.211A.234.234,0,0,0,10.782,3.591Z" transform="translate(0 0)" stroke="#121217" stroke-width="0.5"/>
        </g>
      </g>
      <g id="Group_258" data-name="Group 258" transform="translate(6.754 4.778)">
        <g id="Group_257" data-name="Group 257" transform="translate(0 0)">
          <path id="Path_3068" data-name="Path 3068" d="M.235,0A.235.235,0,0,0,0,.235V5.188a.235.235,0,0,0,.469,0V.235A.235.235,0,0,0,.235,0Z" transform="translate(0 0)" stroke="#121217" stroke-width="0.5"/>
        </g>
      </g>
      <g id="Group_260" data-name="Group 260" transform="translate(4.235 6.504)">
        <g id="Group_259" data-name="Group 259" transform="translate(0 0)">
          <path id="Path_3069" data-name="Path 3069" d="M1.681.288a.985.985,0,1,0,.289.7A.986.986,0,0,0,1.681.288ZM1.35,1.35A.516.516,0,1,1,1.5.985.517.517,0,0,1,1.35,1.35Z" stroke="#121217" stroke-width="0.5"/>
        </g>
      </g>
      <g id="Group_262" data-name="Group 262" transform="translate(7.773 6.504)">
        <g id="Group_261" data-name="Group 261" transform="translate(0 0)">
          <path id="Path_3070" data-name="Path 3070" d="M1.681.288a.985.985,0,1,0,0,1.393A.986.986,0,0,0,1.681.288ZM1.349,1.35a.516.516,0,1,1,0-.73A.517.517,0,0,1,1.349,1.35Z" transform="translate(0 0)" stroke="#121217" stroke-width="0.5"/>
        </g>
      </g>
    </g>
  </g>
</svg>
