<svg xmlns="http://www.w3.org/2000/svg" width="37.872" height="37.873" viewBox="0 0 37.872 37.873"><defs><style>.a{fill:#DE0000;stroke:#DE0000;stroke-width:0.5px;}</style></defs><g transform="translate(0.25 37.623) rotate(-90)"><g transform="translate(0 0)"><path class="a" d="M37.373,2.546A2.532,2.532,0,0,0,34.828,0a2.551,2.551,0,0,0-1.8.753c-.2.2-.576.646-.78.891a.605.605,0,0,0,.932.774c.319-.384.582-.686.7-.808a1.348,1.348,0,0,1,.953-.4h.006a1.321,1.321,0,0,1,1.324,1.33,1.348,1.348,0,0,1-.4.953,21.634,21.634,0,0,1-2.14,1.638,3.836,3.836,0,0,0-3.312-1.905H21.446a4.452,4.452,0,0,0-3.168,1.312L.556,22.261a1.9,1.9,0,0,0,0,2.683L12.43,36.818a1.9,1.9,0,0,0,2.683,0L32.835,19.1a4.451,4.451,0,0,0,1.312-3.168V7.061a3.833,3.833,0,0,0-.077-.764,23.173,23.173,0,0,0,2.55-1.947A2.551,2.551,0,0,0,37.373,2.546ZM32.936,15.927a3.248,3.248,0,0,1-.958,2.312L14.256,35.961a.687.687,0,0,1-.97,0L1.412,24.088a.686.686,0,0,1,0-.97L19.135,5.395a3.248,3.248,0,0,1,2.312-.958h8.866a2.626,2.626,0,0,1,2.308,1.377c-.715.474-1.516.977-2.366,1.472-.026-.029-.054-.058-.082-.086a2.546,2.546,0,1,0,.66,1.15c.739-.43,1.449-.87,2.1-1.3,0,0,0,0,0,.006v8.866Zm-5.1-6.656a.605.605,0,0,0,.813.269q.532-.268,1.059-.554a1.333,1.333,0,1,1-.562-1.072q-.514.279-1.041.545A.605.605,0,0,0,27.834,9.27Z" transform="translate(0 0)"/></g><g transform="translate(17.436 12.333)"><g transform="translate(0 0)"><path class="a" d="M.606,0A.605.605,0,0,0,0,.605V13.393a.605.605,0,0,0,1.211,0V.605A.605.605,0,0,0,.606,0Z" transform="translate(0)"/></g></g><g transform="translate(10.933 16.79)"><g transform="translate(0 0)"><path class="a" d="M4.34.744a2.543,2.543,0,1,0,.745,1.8A2.546,2.546,0,0,0,4.34.744Zm-.856,2.74a1.332,1.332,0,1,1,.39-.942A1.333,1.333,0,0,1,3.484,3.484Z" transform="translate(0 0)"/></g></g><g transform="translate(20.067 16.79)"><g transform="translate(0 0)"><path class="a" d="M4.34.744a2.542,2.542,0,1,0,0,3.6A2.546,2.546,0,0,0,4.34.744Zm-.856,2.74a1.331,1.331,0,1,1,0-1.884A1.333,1.333,0,0,1,3.484,3.484Z" transform="translate(0 0)"/></g></g></g></svg>