<svg xmlns="http://www.w3.org/2000/svg" width="56.32" height="56.32" viewBox="0 0 56.32 56.32"><defs><style>.a{fill:#de0000;}</style></defs><g transform="matrix(0.966, 0.259, -0.259, 0.966, 11.902, 0)"><path class="a" d="M40.3,11.516l-.953.953A4.122,4.122,0,0,1,33.517,6.64l.953-.953L28.782,0,0,28.782l5.687,5.687.953-.953a4.122,4.122,0,0,1,5.829,5.829l-.953.953L17.2,45.985,45.985,17.2ZM15.233,40.2a6.819,6.819,0,0,0-9.453-9.453l-1.97-1.97L28.782,3.811l1.97,1.97A6.819,6.819,0,0,0,40.2,15.233l1.97,1.97L17.2,42.174Z"/><g transform="translate(24.945 17.221)"><g transform="translate(0 0)"><rect class="a" width="2.695" height="2.706" transform="translate(0 1.905) rotate(-45)"/></g></g><g transform="translate(21.12 13.394)"><g transform="translate(0 0)"><rect class="a" width="2.695" height="2.706" transform="translate(0 1.905) rotate(-45)"/></g></g><g transform="translate(28.772 21.048)"><g transform="translate(0 0)"><rect class="a" width="2.695" height="2.706" transform="translate(0 1.905) rotate(-45)"/></g></g></g></svg>