<svg xmlns="http://www.w3.org/2000/svg" width="32.278" height="25.057" viewBox="0 0 32.278 25.057"><defs><style>.a{fill:#121217;stroke:#121217;stroke-width:0.3px;}</style></defs><g transform="translate(32.128 0.15) rotate(90)"><path class="a" d="M22.178,0H2.579A2.582,2.582,0,0,0,0,2.579V29.4a2.582,2.582,0,0,0,2.579,2.579h19.6A2.582,2.582,0,0,0,24.757,29.4V2.579A2.582,2.582,0,0,0,22.178,0ZM6.189,1.032H8.252V3.095H16.5V1.032h2.063V5.158H6.189Zm3.095,0h6.189V2.063H9.284Zm-6.705,0H5.158V6.189H19.6V1.032h2.579a1.549,1.549,0,0,1,1.547,1.547V15.473H15.948a3.605,3.605,0,0,0-7.138,0H7.08a9.171,9.171,0,0,1,.837-1.983L8.7,12.119l-.9-.512-.784,1.372a10.218,10.218,0,0,0-1.014,2.495H1.032V2.579A1.549,1.549,0,0,1,2.579,1.032ZM9.852,15.473a2.579,2.579,0,0,1,5.053,0ZM14.905,16.5a2.579,2.579,0,0,1-5.053,0Zm3.663,14.442H16.5V28.883H8.252v2.063H6.189V26.82H18.568Zm-3.095,0H9.284V29.915h6.189Zm6.705,0H19.6V25.789H5.158v5.158H2.579A1.549,1.549,0,0,1,1.032,29.4V16.5H5.8a10.153,10.153,0,0,0-.123,1.547H6.705A9.191,9.191,0,0,1,6.841,16.5H8.809a3.605,3.605,0,0,0,7.138,0h7.778V29.4A1.549,1.549,0,0,1,22.178,30.946Zm0,0" transform="translate(0 0)"/><path class="a" d="M33.547,147.095A1.547,1.547,0,1,0,32,145.547,1.549,1.549,0,0,0,33.547,147.095Zm0-2.063a.516.516,0,1,1-.516.516A.516.516,0,0,1,33.547,145.032Zm0,0" transform="translate(-29.937 -134.716)"/><path class="a" d="M169.547,115.095A1.547,1.547,0,1,0,168,113.547,1.549,1.549,0,0,0,169.547,115.095Zm0-2.063a.516.516,0,1,1-.516.516A.516.516,0,0,1,169.547,113.032Zm0,0" transform="translate(-157.169 -104.779)"/><path class="a" d="M297.547,179.095A1.547,1.547,0,1,0,296,177.547,1.549,1.549,0,0,0,297.547,179.095Zm0-2.063a.516.516,0,1,1-.516.516A.516.516,0,0,1,297.547,177.032Zm0,0" transform="translate(-276.916 -164.653)"/><path class="a" d="M33.547,336a1.547,1.547,0,1,0,1.547,1.547A1.549,1.549,0,0,0,33.547,336Zm0,2.063a.516.516,0,1,1,.516-.516A.516.516,0,0,1,33.547,338.063Zm0,0" transform="translate(-29.937 -314.338)"/><path class="a" d="M297.547,336a1.547,1.547,0,1,0,1.547,1.547A1.549,1.549,0,0,0,297.547,336Zm0,2.063a.516.516,0,1,1,.516-.516A.516.516,0,0,1,297.547,338.063Zm0,0" transform="translate(-276.916 -314.338)"/><path class="a" d="M76.532,288.406l-.729.729-.729-.729-.729.729.729.729-.729.729.729.729.729-.729.729.729.729-.729-.729-.729.729-.729Zm0,0" transform="translate(-69.551 -269.812)"/><path class="a" d="M284.532,269.261l.729-.729-.729-.729.729-.729-.729-.729-.729.729-.729-.729-.729.729.729.729-.729.729.729.729.729-.729Zm0,0" transform="translate(-264.141 -249.172)"/></g></svg>