<svg xmlns="http://www.w3.org/2000/svg" width="40.945" height="40.944" viewBox="0 0 40.945 40.944">
  <g id="Group_2637" data-name="Group 2637" transform="translate(-165.055 -9607.061)">
    <path id="Path_3059" data-name="Path 3059" d="M6,40.945H34.947a6,6,0,0,0,6-6V6a6,6,0,0,0-6-6H6A6,6,0,0,0,0,6V34.947A6,6,0,0,0,6,40.945ZM2.4,6A3.6,3.6,0,0,1,6,2.4H34.947a3.6,3.6,0,0,1,3.6,3.6V34.947a3.6,3.6,0,0,1-3.6,3.6H6a3.6,3.6,0,0,1-3.6-3.6Zm0,0" transform="translate(165.055 9607.061)" fill="#fff"/>
    <path id="Path_3060" data-name="Path 3060" d="M131.8,142.592A10.8,10.8,0,1,0,121,131.8,10.808,10.808,0,0,0,131.8,142.592Zm0-19.193a8.4,8.4,0,1,1-8.4,8.4A8.406,8.406,0,0,1,131.8,123.4Zm0,0" transform="translate(53.732 9495.737)" fill="#fff"/>
    <path id="Path_3061" data-name="Path 3061" d="M364.6,68.2a3.6,3.6,0,1,0-3.6-3.6A3.6,3.6,0,0,0,364.6,68.2Zm0-4.8a1.2,1.2,0,1,1-1.2,1.2A1.2,1.2,0,0,1,364.6,63.4Zm0,0" transform="translate(-167.075 9550.938)" fill="#fff"/>
  </g>
</svg>
