<svg xmlns="http://www.w3.org/2000/svg" width="337.555" height="337.555" viewBox="0 0 337.555 337.555"><defs><style>.a{fill:#fff;}</style></defs><path class="a" d="M305.42,218.034a26.13,26.13,0,0,0-30.544,6.075,26.114,26.114,0,0,0-42.923,6.258l-17.414,34.455a20.069,20.069,0,0,1-.966-6.163V218.729a6.527,6.527,0,0,0,.116-1.216V162.306A74.926,74.926,0,0,0,281.92,87.77V43.039a22.66,22.66,0,1,0-45.321,0V87.77a29.535,29.535,0,0,1-29.5,29.5h-8.56a41.683,41.683,0,0,0,11.275-28.535V84.4a41.851,41.851,0,1,0-83.7,0v4.339a41.683,41.683,0,0,0,11.275,28.535h-8.56a29.535,29.535,0,0,1-29.5-29.5V43.039a22.66,22.66,0,0,0-45.321,0V87.77a74.924,74.924,0,0,0,68.617,74.566v55.177c0,.067.008.134.01.2v40.943c0,1.829.07,3.678.206,5.5a6.594,6.594,0,0,0,6.567,6.1c.167,0,.335-.005.5-.018a6.6,6.6,0,0,0,6.078-7.072c-.113-1.489-.17-3-.17-4.5V224.106h64.574v34.553A33.384,33.384,0,0,0,263.9,273.032l18.6-36.789c.023-.049.049-.1.072-.152a12.919,12.919,0,0,1,23.381,10.994l-18.589,36.773c-.026.049-.049.1-.075.152a59.217,59.217,0,0,1-112.733-25.352v-3.428a6.593,6.593,0,0,0-13.186,0v3.428A72.368,72.368,0,0,0,192.046,317.8a58.469,58.469,0,0,1-33.752-12.73A6.593,6.593,0,1,0,150.1,315.4,71.991,71.991,0,0,0,214.315,328.4a72.432,72.432,0,0,0,84.855-38.671l18.594-36.784.075-.152A26.138,26.138,0,0,0,305.42,218.034ZM139.3,88.736V84.4a28.665,28.665,0,1,1,57.33,0v4.339a28.7,28.7,0,0,1-25.97,28.535h-5.39A28.7,28.7,0,0,1,139.3,88.736ZM67.186,87.77V43.039a9.475,9.475,0,0,1,18.949,0V87.77a42.735,42.735,0,0,0,42.689,42.686h35.988c1.04.08,2.089.131,3.15.131s2.107-.051,3.147-.131H207.1A42.735,42.735,0,0,0,249.785,87.77V43.039a9.475,9.475,0,1,1,18.949,0V87.77A61.707,61.707,0,0,1,207.1,149.408,6.592,6.592,0,0,0,200.506,156V210.92H135.8V156a6.592,6.592,0,0,0-6.593-6.593h-.386A61.709,61.709,0,0,1,67.186,87.77ZM252.1,267.155c-.026.049-.049.1-.075.149a20.286,20.286,0,0,1-18.251,11.553,20.075,20.075,0,0,1-10.26-2.81,32.682,32.682,0,0,0,1.651-3.016l18.594-36.789c.026-.049.049-.1.075-.152a12.915,12.915,0,0,1,23.634.659Zm0,0" transform="translate(-18.399 -6.943)"/><path class="a" d="M182.3,422.341a6.673,6.673,0,1,0,.07.131Zm0,0" transform="translate(-57.893 -142.726)"/><path class="a" d="M46.593,412A6.592,6.592,0,0,0,40,418.593V427.7a6.593,6.593,0,1,0,13.186,0v-9.106A6.592,6.592,0,0,0,46.593,412Zm0,0" transform="translate(-13.629 -140.374)"/><path class="a" d="M46.593,478.188A6.592,6.592,0,0,0,40,484.78v9.106a6.593,6.593,0,0,0,13.186,0V484.78A6.592,6.592,0,0,0,46.593,478.188Zm0,0" transform="translate(-13.629 -162.925)"/><path class="a" d="M81.887,452H72.78a6.593,6.593,0,1,0,0,13.186h9.106a6.593,6.593,0,1,0,0-13.186Zm0,0" transform="translate(-22.551 -154.003)"/><path class="a" d="M15.7,452H6.593a6.593,6.593,0,1,0,0,13.186H15.7A6.593,6.593,0,1,0,15.7,452Zm0,0" transform="translate(0 -154.003)"/><path class="a" d="M458.593,0A6.592,6.592,0,0,0,452,6.593V15.7a6.593,6.593,0,1,0,13.186,0V6.593A6.592,6.592,0,0,0,458.593,0Zm0,0" transform="translate(-154.003)"/><path class="a" d="M458.593,66.187A6.592,6.592,0,0,0,452,72.78v9.106a6.593,6.593,0,1,0,13.186,0V72.78A6.592,6.592,0,0,0,458.593,66.187Zm0,0" transform="translate(-154.003 -22.551)"/><path class="a" d="M493.887,40H484.78a6.593,6.593,0,1,0,0,13.186h9.106a6.593,6.593,0,0,0,0-13.186Zm0,0" transform="translate(-162.925 -13.629)"/><path class="a" d="M418.593,53.186H427.7A6.593,6.593,0,1,0,427.7,40h-9.106a6.593,6.593,0,1,0,0,13.186Zm0,0" transform="translate(-140.374 -13.629)"/></svg>