<svg xmlns="http://www.w3.org/2000/svg" width="50.606" height="51.639" viewBox="0 0 50.606 51.639"><defs><style>.a{fill:#fff;}</style></defs><g transform="translate(0 0)"><path class="a" d="M54.062,49.653a78.408,78.408,0,0,0-5-11.754c.058-.058.116-.175.233-.233,4.481-5.063,6.4-12.162,2.968-19.144C49.29,12.47,42.715,7.407,34.1,4.149A68.934,68.934,0,0,0,4.95.192a1.492,1.492,0,0,0-1.4,1.571A1.475,1.475,0,0,0,4.135,2.81c5.353,4.6,7.274,11.522,9.252,18.446a67.553,67.553,0,0,0,4.131,11.813c0,.058.058.058.058.116C22.058,41.856,28.924,45,35.441,44.591A20.4,20.4,0,0,0,43.064,42.5a23.344,23.344,0,0,0,3.782-2.444,77.932,77.932,0,0,1,4.422,10.591,1.482,1.482,0,1,0,2.793-.989ZM42.482,27.541A63.318,63.318,0,0,0,23.338,11.19a1.458,1.458,0,0,0-1.4,2.56A61.3,61.3,0,0,1,40.213,29.345,70.888,70.888,0,0,1,45.45,37.2a14.441,14.441,0,0,1-3.724,2.619,15.806,15.806,0,0,1-6.459,1.8c-5.47.349-11.231-2.328-15.129-9.834v-.058a68.51,68.51,0,0,1-3.9-11.347c-1.8-6.285-3.55-12.569-7.8-17.515A64.725,64.725,0,0,1,33.056,6.825C40.969,9.851,47.021,14.39,49.64,19.744c2.735,5.528,1.338,11.172-2.095,15.3A65.2,65.2,0,0,0,42.482,27.541Z" transform="translate(-3.55 0)"/></g></svg>