<svg xmlns="http://www.w3.org/2000/svg" width="45.328" height="33.605" viewBox="0 0 45.328 33.605"><defs><style>.a{fill:#fff;}</style></defs><g transform="translate(0 0)"><path class="a" d="M40.839,20.053l-6.772-.484-4.476-7.456L27.354,8.381V7.347a2.032,2.032,0,0,0-2.766-1.9L18.153,7.933,18.639,6.3a3.033,3.033,0,0,0-1.5-3.495L12.093.093a.782.782,0,0,0-1.04.286L3.647,12.24l-.156-.091a.781.781,0,0,0-1.067.288l-.013.024L.092,16.827A.782.782,0,0,0,.4,17.878l28.2,15.63a.782.782,0,0,0,.378.1H40.64a4.693,4.693,0,0,0,4.689-4.689V24.875A4.851,4.851,0,0,0,40.839,20.053Zm-8.405-.167-.893.3-6.993-9.092,1.8-1.35ZM12.01,1.823,16.4,4.181a1.473,1.473,0,0,1,.733,1.687l-.646,2.176L12,5.354l-1.553-.932ZM7.383,9.281l.4-.625,2.571,1.912a4.476,4.476,0,0,1,1.743,4.22L12,17.048,5.015,13.022ZM40.64,32.043H29.184L1.831,16.881l1.579-2.97,25.9,14.9a.779.779,0,0,0,.391.1H43.766A3.126,3.126,0,0,1,40.64,32.043Zm3.126-4.689H29.907l-5.36-3.086,1.8-1.837a.782.782,0,0,0-1.116-1.094l-2.085,2.126-2.97-1.712,2.979-2.383a.782.782,0,0,0-.977-1.221l-3.457,2.766-2.545-1.463,3.861-3.218a.782.782,0,1,0-1-1.2l-4.3,3.588-1.208-.7.127-3a6,6,0,0,0-2.365-5.611L8.624,7.331,9.63,5.751,16.548,9.9a.764.764,0,0,0,.3.1c.019,0,.035.006.054.008s.03.006.045.006a.777.777,0,0,0,.283-.052l7.917-3.053a.47.47,0,0,1,.639.442v.86l-2.814,2.11a.781.781,0,0,0-.155,1.094l.005.007L30.64,21.58a.778.778,0,0,0,.866.265l2.2-.732,7.023.5a3.282,3.282,0,0,1,3.04,3.26Zm0,0" transform="translate(-0.001 0)"/><path class="a" d="M4.689,256H.782a.782.782,0,1,0,0,1.563H4.689a.782.782,0,1,0,0-1.563Zm0,0" transform="translate(0 -233.336)"/><path class="a" d="M0,309.746a.782.782,0,0,0,.782.782h10.16a.782.782,0,1,0,0-1.563H.782A.782.782,0,0,0,0,309.746Zm0,0" transform="translate(0 -281.611)"/><path class="a" d="M19.538,361.934H.782a.781.781,0,1,0,0,1.563H19.538a.781.781,0,0,0,0-1.563Zm0,0" transform="translate(0 -329.891)"/></g></svg>