<svg xmlns="http://www.w3.org/2000/svg" width="24.198" height="24.199" viewBox="0 0 24.198 24.199"><defs><style>.a{fill:#DE0000;}</style></defs><path class="a" d="M19.423,24.289a.757.757,0,0,1-.307-.065l-6.985-3.11-6.985,3.11A.757.757,0,0,1,4.1,23.383l1.54-7.717L.253,10.272A.758.758,0,0,1,.639,8.993L8.358,7.447,11.44.5a.787.787,0,0,1,1.382,0L15.9,7.447l7.719,1.547a.758.758,0,0,1,.386,1.278l-5.385,5.395,1.54,7.717a.757.757,0,0,1-.741.906Zm-7.292-4.761a.752.752,0,0,1,.307.065l5.957,2.653-1.334-6.68a.759.759,0,0,1,.207-.684L21.94,10.2,15.224,8.855a.755.755,0,0,1-.543-.435l-2.55-5.747L9.581,8.42a.755.755,0,0,1-.543.435L2.322,10.2l4.672,4.68a.759.759,0,0,1,.207.684l-1.334,6.68,5.957-2.653a.752.752,0,0,1,.307-.065Z" transform="translate(-0.032 -0.09)"/></svg>