<svg xmlns="http://www.w3.org/2000/svg" width="28.181" height="25.492" viewBox="0 0 28.181 25.492">
  <g id="Group_247" data-name="Group 247" transform="translate(-5266.532 -560.755)">
    <path id="Path_3062" data-name="Path 3062" d="M5294.663,568.562a3.606,3.606,0,0,1-1.176,1.827c-2.233,2.212-4.451,4.441-6.678,6.659a.585.585,0,0,0-.184.457q.007,3.523,0,7.045a1.5,1.5,0,0,1-1.1,1.576,2.06,2.06,0,0,1-.514.065c-.6.008-1.206,0-1.81.005a.613.613,0,0,1-.588-.276.539.539,0,0,1,.475-.817c.6-.016,1.206,0,1.809-.006.521,0,.629-.109.631-.626,0-.191,0-.382,0-.593h-9.793a8.156,8.156,0,0,0,.007.888c.03.27.255.33.492.331.566,0,1.133,0,1.7,0a2.578,2.578,0,0,1,.274.007.533.533,0,0,1,.5.525.522.522,0,0,1-.472.546c-.308.029-.621.02-.931.019-.438,0-.878.012-1.314-.022a1.465,1.465,0,0,1-1.354-1.379c-.023-.328-.011-.658-.011-.986,0-2.1,0-4.2,0-6.305a.612.612,0,0,0-.2-.476q-3.544-3.531-7.079-7.071a2.4,2.4,0,0,1,.927-4.049,2.35,2.35,0,0,1,2.488.643q1.895,1.885,3.783,3.777c.4.4.8.807,1.216,1.186.626.562,1,.563,1.7.031-.114-.1-.226-.2-.334-.306a4.145,4.145,0,0,1-1.4-2.445,6.008,6.008,0,0,1-.026-.875c.01-.931-.043-1.87.055-2.792a4.925,4.925,0,0,1,9.812.6c.005.786-.025,1.573.009,2.357a3.815,3.815,0,0,1-1.09,2.806c-.208.231-.408.468-.612.7a.971.971,0,0,0,1.51.014c.713-.642,1.383-1.33,2.064-2,1.058-1.048,2.092-2.122,3.169-3.15a2.4,2.4,0,0,1,3.858.811c.081.191.131.394.2.592Zm-21.484,5.675c.737.737,1.473,1.486,2.224,2.218a.994.994,0,0,1,.323.774c-.01,1.726,0,3.453,0,5.179v.332h9.81v-.348c0-1.717.005-3.435-.005-5.152a1.009,1.009,0,0,1,.334-.8c.568-.543,1.115-1.107,1.67-1.662.187-.185.376-.367.531-.517l-1.863-1.9a2.766,2.766,0,0,1-1.32.657,2.443,2.443,0,0,1-1.459-.372,2.964,2.964,0,0,1-.617,2.165,2.724,2.724,0,0,1-1.981,1.033,2.69,2.69,0,0,1-1.9-.571,2.912,2.912,0,0,1-1.1-2.65,2.091,2.091,0,0,1-2.772-.271Zm11.248-6.828a14.361,14.361,0,0,1-4.2-1.12,8.533,8.533,0,0,0-1.338-.382,1.668,1.668,0,0,0-1.468.444,1.368,1.368,0,0,0-.64,1.351,2.226,2.226,0,0,1,0,.547,2.226,2.226,0,0,0,.439,1.439,5.224,5.224,0,0,0,2.833,2,2.071,2.071,0,0,0,1.215-.022,5.679,5.679,0,0,0,2.25-1.363A3.055,3.055,0,0,0,5284.427,567.408Zm.013-1.1a3.843,3.843,0,0,0-1.811-3.835,3.672,3.672,0,0,0-4.067.039,3.74,3.74,0,0,0-1.763,2.938,3.19,3.19,0,0,1,3.277-.385c.552.188,1.1.4,1.643.6A10.059,10.059,0,0,0,5284.439,566.309Zm-11.92,3.561c-.028-.033-.062-.075-.1-.113-.82-.82-1.638-1.644-2.463-2.459a1.317,1.317,0,1,0-1.853,1.869c.275.281.557.555.833.833.579.581,1.157,1.162,1.722,1.729Zm18.059,1.859c.88-.877,1.772-1.741,2.626-2.641a1.541,1.541,0,0,0,.347-.806,1.233,1.233,0,0,0-.732-1.265,1.3,1.3,0,0,0-1.493.254c-.852.84-1.694,1.689-2.539,2.536a.5.5,0,0,0-.057.084Zm-11.634.713a1.893,1.893,0,0,0,.871,2.109,1.6,1.6,0,0,0,1.8-.112,1.938,1.938,0,0,0,.686-2A3.639,3.639,0,0,1,5278.944,572.442Zm-5.587-1.734-1.822,1.8.821.846,1.818-1.814Zm16.358,1.847-1.8-1.828-.846.847,1.814,1.817Z" fill="#de0000" stroke="#de0000" stroke-width="0.1"/>
    <path id="Path_3063" data-name="Path 3063" d="M5451.231,893.537a.541.541,0,1,1,.552-.529A.541.541,0,0,1,5451.231,893.537Z" transform="translate(-170.612 -307.353)" fill="#de0000" stroke="#de0000" stroke-width="0.1"/>
  </g>
</svg>
