<svg xmlns="http://www.w3.org/2000/svg" width="25.52" height="25.52" viewBox="0 0 25.52 25.52"><defs><style>.a{fill:#DE0000;stroke:#DE0000;stroke-width:0.5px;}</style></defs><g transform="translate(0.25 0.25)"><path class="a" d="M22.153,65.6H2.867A2.869,2.869,0,0,1,0,62.736v-17.2a2.869,2.869,0,0,1,2.867-2.867H22.153a2.869,2.869,0,0,1,2.867,2.867v17.2A2.869,2.869,0,0,1,22.153,65.6ZM2.867,44.232a1.3,1.3,0,0,0-1.3,1.3v17.2a1.305,1.305,0,0,0,1.3,1.3H22.153a1.305,1.305,0,0,0,1.3-1.3v-17.2a1.3,1.3,0,0,0-1.3-1.3Zm0,0" transform="translate(0 -40.583)"/><path class="a" d="M24.238,172.232H.782a.782.782,0,0,1,0-1.564H24.238a.782.782,0,0,1,0,1.564Zm0,0" transform="translate(0 -162.328)"/><path class="a" d="M107.45,6.255a.782.782,0,0,1-.782-.782V.782a.782.782,0,0,1,1.564,0V5.473A.782.782,0,0,1,107.45,6.255Zm0,0" transform="translate(-101.455 0)"/><path class="a" d="M374.114,6.255a.782.782,0,0,1-.782-.782V.782a.782.782,0,1,1,1.564,0V5.473A.782.782,0,0,1,374.114,6.255Zm0,0" transform="translate(-355.088 0)"/></g></svg>