<svg xmlns="http://www.w3.org/2000/svg" width="40.945" height="33.512" viewBox="0 0 40.945 33.512"><defs><style>.a{fill:#29292E;}</style></defs><path class="a" d="M40.945,4.476c-2.576.119-2.519.109-2.811.133L39.66.253S34.9,2,33.691,2.318a9.553,9.553,0,0,0-11.251-.9,7.792,7.792,0,0,0-3.745,8.012A20.783,20.783,0,0,1,5.231,1.845L4.1.489l-.844,1.55a9.367,9.367,0,0,0-1,6.306,9.059,9.059,0,0,0,.878,2.462l-.969-.375L2.053,12.05a8.639,8.639,0,0,0,1.465,5.135A9.131,9.131,0,0,0,4.66,18.592l-.5-.077L4.77,20.37a9.019,9.019,0,0,0,4.636,5.372c-2.162.917-3.909,1.5-6.779,2.447L0,29.053l2.426,1.326a25.464,25.464,0,0,0,7.423,2.7c7.179,1.126,15.261.209,20.7-4.691,4.583-4.128,6.087-10,5.774-16.109A3.817,3.817,0,0,1,37.039,9.8C38.055,8.439,40.938,4.485,40.945,4.476ZM35.12,8.358A6.217,6.217,0,0,0,33.931,12.4c.315,6.163-1.362,10.942-4.984,14.2-4.232,3.811-11.058,5.307-18.727,4.1A18.571,18.571,0,0,1,6.208,29.52a63.622,63.622,0,0,0,7.267-2.987l4.19-1.983-4.626-.3a6.543,6.543,0,0,1-5.2-2.96A8.3,8.3,0,0,0,9.6,21l4.412-1.229-4.449-1.09A6.627,6.627,0,0,1,5.52,15.867a6.787,6.787,0,0,1-.877-1.936,11.107,11.107,0,0,0,1.8.288l4.118.407L7.3,12.081A6.868,6.868,0,0,1,4.7,4.844,23.868,23.868,0,0,0,21.52,12.084a14.2,14.2,0,0,0-.246-2.035A5.508,5.508,0,0,1,23.7,3.455a7.165,7.165,0,0,1,8.453.7,2.147,2.147,0,0,0,1.97.527,16.58,16.58,0,0,0,1.623-.494L34.707,7.143h1.321C35.779,7.478,35.48,7.879,35.12,8.358Zm0,0"/></svg>