<svg xmlns="http://www.w3.org/2000/svg" width="55.104" height="49.871" viewBox="0 0 55.104 49.871">
  <g id="Group_291" data-name="Group 291" transform="translate(0.269 0.252)">
    <path id="Path_3062" data-name="Path 3062" d="M5321.176,575.886a7.013,7.013,0,0,1-2.286,3.553c-4.343,4.3-8.656,8.635-12.986,12.947a1.142,1.142,0,0,0-.357.889q.012,6.849,0,13.7a2.922,2.922,0,0,1-2.135,3.065,4.011,4.011,0,0,1-1,.126c-1.173.016-2.346.008-3.52.01a1.194,1.194,0,0,1-1.146-.537,1.049,1.049,0,0,1,.925-1.589c1.173-.03,2.344-.008,3.518-.011,1.012,0,1.223-.212,1.226-1.217,0-.372,0-.743,0-1.153h-19.043a15.654,15.654,0,0,0,.015,1.726c.057.525.5.641.956.643,1.1,0,2.2,0,3.305,0a5.046,5.046,0,0,1,.534.014,1.037,1.037,0,0,1,.965,1.02,1.016,1.016,0,0,1-.918,1.061c-.6.055-1.208.039-1.811.037-.853,0-1.708.023-2.556-.042a2.849,2.849,0,0,1-2.633-2.681c-.045-.637-.02-1.279-.02-1.918,0-4.086-.007-8.173.007-12.26a1.194,1.194,0,0,0-.4-.925q-6.892-6.865-13.765-13.749a4.673,4.673,0,0,1,1.8-7.872,4.569,4.569,0,0,1,4.839,1.25q3.684,3.666,7.356,7.344c.78.778,1.547,1.57,2.365,2.305,1.218,1.093,1.946,1.095,3.3.06-.222-.2-.44-.395-.651-.595a8.055,8.055,0,0,1-2.726-4.753,11.492,11.492,0,0,1-.051-1.7c.02-1.811-.084-3.636.107-5.429a9.482,9.482,0,0,1,9.988-8.382,9.578,9.578,0,0,1,9.09,9.544c.01,1.528-.05,3.058.017,4.583a7.426,7.426,0,0,1-2.119,5.455c-.4.449-.793.909-1.19,1.363a1.889,1.889,0,0,0,2.936.028c1.387-1.248,2.69-2.585,4.013-3.9,2.058-2.039,4.069-4.126,6.164-6.125a4.661,4.661,0,0,1,7.5,1.577c.156.371.255.767.379,1.151ZM5279.4,586.92c1.432,1.433,2.863,2.89,4.324,4.313a1.933,1.933,0,0,1,.628,1.505c-.019,3.357-.01,6.714-.01,10.071v.647h19.074v-.677c0-3.339.011-6.678-.009-10.017a1.958,1.958,0,0,1,.649-1.549c1.1-1.055,2.168-2.153,3.248-3.231.363-.36.731-.713,1.033-1.006-1.236-1.258-2.422-2.468-3.622-3.691a5.388,5.388,0,0,1-2.567,1.278,4.751,4.751,0,0,1-2.837-.723,5.773,5.773,0,0,1-1.2,4.21,5.3,5.3,0,0,1-3.852,2.009,5.235,5.235,0,0,1-3.689-1.11,5.662,5.662,0,0,1-2.13-5.153,4.064,4.064,0,0,1-5.39-.528C5281.824,584.5,5280.636,585.686,5279.4,586.92Zm21.872-13.276a27.932,27.932,0,0,1-8.163-2.178,16.587,16.587,0,0,0-2.6-.742,3.244,3.244,0,0,0-2.854.864c-.789.693-1.49,1.424-1.244,2.626a4.3,4.3,0,0,1,0,1.063,4.333,4.333,0,0,0,.855,2.8,10.155,10.155,0,0,0,5.509,3.88,4.027,4.027,0,0,0,2.363-.043,11.044,11.044,0,0,0,4.375-2.649A5.946,5.946,0,0,0,5301.273,573.643Zm.024-2.137a7.475,7.475,0,0,0-3.521-7.457,7.138,7.138,0,0,0-7.907.076,7.27,7.27,0,0,0-3.429,5.712c2.057-1.645,4.192-1.489,6.371-.749,1.073.365,2.131.778,3.194,1.173A19.559,19.559,0,0,0,5301.3,571.506Zm-23.179,6.924c-.056-.063-.121-.146-.195-.22-1.594-1.6-3.185-3.2-4.789-4.782a2.56,2.56,0,1,0-3.6,3.635c.534.546,1.082,1.079,1.621,1.62,1.126,1.129,2.25,2.259,3.349,3.363C5275.718,580.829,5276.9,579.651,5278.118,578.43Zm35.115,3.614c1.712-1.706,3.448-3.385,5.106-5.136a2.991,2.991,0,0,0,.675-1.566,2.4,2.4,0,0,0-1.425-2.459,2.534,2.534,0,0,0-2.9.494c-1.658,1.633-3.294,3.284-4.937,4.93a.892.892,0,0,0-.111.164Zm-22.621,1.385c-.186,1.733.085,3.218,1.694,4.1a3.115,3.115,0,0,0,3.506-.218c1.337-.948,1.5-2.327,1.333-3.887A7.075,7.075,0,0,1,5290.612,583.43Zm-10.863-3.372c-1.227,1.209-2.42,2.389-3.544,3.5.553.57,1.116,1.15,1.6,1.645l3.537-3.527C5280.835,581.165,5280.289,580.608,5279.749,580.058Zm31.806,3.592c-1.166-1.188-2.344-2.386-3.49-3.554l-1.646,1.647,3.528,3.532Z" transform="translate(-5266.591 -560.806)" fill="#fff" stroke="#fff" stroke-width="0.5"/>
    <path id="Path_3063" data-name="Path 3063" d="M5451.743,894.559a1.052,1.052,0,1,1,1.073-1.029A1.049,1.049,0,0,1,5451.743,894.559Z" transform="translate(-5424.466 -845.215)" fill="#fff" stroke="#fff" stroke-width="0.5"/>
  </g>
</svg>
