<svg xmlns="http://www.w3.org/2000/svg" width="45.552" height="54.662" viewBox="0 0 45.552 54.662"><defs><style>.a{fill:#fff;}</style></defs><path class="a" d="M41,0H4.555A4.56,4.56,0,0,0,0,4.555v43.73a2.733,2.733,0,0,0,2.733,2.733v2.733a.911.911,0,0,0,.911.911H41.908a.911.911,0,0,0,.911-.911V51.018a2.733,2.733,0,0,0,2.733-2.733V4.555A4.561,4.561,0,0,0,41,0ZM4.555,1.822H41A2.733,2.733,0,0,1,43.73,4.555v6.377H1.822V4.555A2.733,2.733,0,0,1,4.555,1.822ZM41,52.84H4.555V51.018H41ZM42.819,49.2H2.733a.911.911,0,0,1-.911-.911V12.754H43.73V48.285A.911.911,0,0,1,42.819,49.2Zm0,0"/><path class="a" d="M35.044,39.6H45.976a.911.911,0,0,0,.911-.911V35.044a.911.911,0,0,0-.911-.911H35.044a.911.911,0,0,0-.911.911v3.644A.911.911,0,0,0,35.044,39.6Zm.911-3.644h9.111v1.822H35.955Zm0,0" transform="translate(-30.489 -30.489)"/><path class="a" d="M173.4,39.6a2.733,2.733,0,1,0-2.733-2.733A2.733,2.733,0,0,0,173.4,39.6Zm0-3.644a.911.911,0,1,1-.911.911A.911.911,0,0,1,173.4,35.955Zm0,0" transform="translate(-152.447 -30.489)"/><path class="a" d="M241.666,39.6a2.733,2.733,0,1,0-2.733-2.733A2.733,2.733,0,0,0,241.666,39.6Zm0-3.644a.911.911,0,1,1-.911.911A.911.911,0,0,1,241.666,35.955Zm0,0" transform="translate(-213.425 -30.489)"/><path class="a" d="M308.11,53.021h1.822a.911.911,0,0,0,0-1.822H308.11a.911.911,0,1,0,0,1.822Zm0,0" transform="translate(-274.402 -45.733)"/><path class="a" d="M359.31,53.021h1.822a.911.911,0,1,0,0-1.822H359.31a.911.911,0,1,0,0,1.822Zm0,0" transform="translate(-320.135 -45.733)"/><path class="a" d="M91.377,153.6a14.577,14.577,0,1,0,14.577,14.576A14.576,14.576,0,0,0,91.377,153.6Zm0,27.331a12.755,12.755,0,1,1,12.755-12.755A12.755,12.755,0,0,1,91.377,180.933Zm0,0" transform="translate(-68.601 -137.203)"/><path class="a" d="M114.242,179.2a11.831,11.831,0,0,0-10.953,16.334c.005.018,0,.037.007.055s.025.035.034.057a11.834,11.834,0,0,0,22.339-1.54.351.351,0,0,0,.012-.046A11.8,11.8,0,0,0,114.242,179.2Zm0,1.822a10,10,0,0,1,9.778,12.19,14.064,14.064,0,0,0-1.4.547,8.266,8.266,0,0,1-3.826.929,6.153,6.153,0,0,1-3.237-.82,7.959,7.959,0,0,0-4.051-1,23.932,23.932,0,0,0-6.793,1.275,10.01,10.01,0,0,1,9.526-13.119Zm0,20.043a10.029,10.029,0,0,1-8.8-5.239,21.707,21.707,0,0,1,6.071-1.138,6.155,6.155,0,0,1,3.237.82,7.957,7.957,0,0,0,4.052,1,9.828,9.828,0,0,0,4.412-1.019A10.022,10.022,0,0,1,114.242,201.063Zm0,0" transform="translate(-91.466 -160.067)"/></svg>