<svg xmlns="http://www.w3.org/2000/svg" width="40.945" height="40.944" viewBox="0 0 40.945 40.944">
  <g id="Group_2640" data-name="Group 2640" transform="translate(-164.838 -9852.375)">
    <path id="Path_3062" data-name="Path 3062" d="M9.9,38.023A20.322,20.322,0,0,0,20.4,40.93,20.577,20.577,0,0,0,40.945,20.465,20.465,20.465,0,1,0,2.922,31.041L0,40.945ZM2.413,20.465a17.98,17.98,0,1,1,8.312,15.246l-.461-.295L3.547,37.4l1.981-6.717-.295-.461A18.064,18.064,0,0,1,2.413,20.465Zm0,0" transform="translate(164.838 9852.375)" fill="#29292E"/>
    <path id="Path_3063" data-name="Path 3063" d="M121.408,101.949a18.08,18.08,0,0,0,14.5,14.5c2.382.454,5.878.522,7.587-1.186l.952-.952a2.546,2.546,0,0,0,0-3.6l-3.809-3.809a2.546,2.546,0,0,0-3.6,0l-.952.952a1.694,1.694,0,0,1-2.266.007l-3.8-3.959-.017-.017a1.5,1.5,0,0,1,0-2.113l.952-.952a2.544,2.544,0,0,0,0-3.6l-3.809-3.809a2.549,2.549,0,0,0-3.6,0l-.952.952h0C121.23,95.725,120.776,98.632,121.408,101.949Zm2.882-5.891c1-.977.946-1,1.056-1a.147.147,0,0,1,.1.043c4.013,4.035,3.852,3.8,3.852,3.914a.144.144,0,0,1-.043.1l-.952.952a3.891,3.891,0,0,0-.01,5.5l3.8,3.961.017.017a4.091,4.091,0,0,0,5.664,0l.952-.952a.148.148,0,0,1,.209,0c4.013,4.035,3.852,3.8,3.852,3.913a.144.144,0,0,1-.043.1l-.952.952c-.653.653-2.731,1.043-5.442.527A15.682,15.682,0,0,1,123.763,101.5C123.247,98.789,123.637,96.71,124.29,96.058Zm0,0" transform="translate(53.397 9767.12)" fill="#29292E"/>
  </g>
</svg>
