<svg xmlns="http://www.w3.org/2000/svg" width="40.945" height="40.944" viewBox="0 0 40.945 40.944"><defs><style>.a{fill:#fff;}</style></defs><path class="a" d="M6,40.945H19.353V26.39h-4.8v-4.8h4.8v-6a6,6,0,0,1,6-6h6v4.8h-4.8a2.4,2.4,0,0,0-2.4,2.4v4.8h6.981l-.8,4.8H24.151V40.945h10.8a6,6,0,0,0,6-6V6a6,6,0,0,0-6-6H6A6,6,0,0,0,0,6V34.947A6,6,0,0,0,6,40.945ZM2.4,6A3.6,3.6,0,0,1,6,2.4H34.947a3.6,3.6,0,0,1,3.6,3.6V34.947a3.6,3.6,0,0,1-3.6,3.6h-8.4V28.789h5.814l1.6-9.6H26.55v-2.4h7.2V7.2h-8.4a8.406,8.406,0,0,0-8.4,8.4v3.6h-4.8v9.6h4.8v9.756H6a3.6,3.6,0,0,1-3.6-3.6Zm0,0"/></svg>