<svg xmlns="http://www.w3.org/2000/svg" width="37.195" height="35.719" viewBox="0 0 37.195 35.719"><defs><style>.a{fill:#fff;}</style></defs><g transform="translate(1.476)"><path class="a" d="M57.414,22.3a14.746,14.746,0,0,0,1.9-5.7l0-.02a14.951,14.951,0,0,0,.1-1.727,14.793,14.793,0,0,0-3.9-10.018.76.76,0,0,0-.136-.146A14.9,14.9,0,0,0,49.668.9a.748.748,0,0,0-.122-.043,14.848,14.848,0,0,0-10.483.2.76.76,0,0,0-.134.055,14.915,14.915,0,0,0-5.438,3.86.784.784,0,0,0-.128.145A14.818,14.818,0,0,0,29.813,16.5c0,.007,0,.013,0,.02a14.73,14.73,0,0,0,.611,2.853l-7.977,7.977a.759.759,0,1,0,1.074,1.074l7.5-7.5a14.807,14.807,0,0,0,.694,1.352.75.75,0,0,0,.087.147,14.919,14.919,0,0,0,8.5,6.649l-5.35,5.349A.76.76,0,1,0,36.023,35.5l6.013-6.014a14.846,14.846,0,0,0,15.283-7.025A.756.756,0,0,0,57.414,22.3Zm-6.571.03-2.7-4.158,1.437-4.422,3.415-.767.888-.2,3.882,3.987a13.228,13.228,0,0,1-1.539,4.548ZM41,18.17l-2.7,4.156L32.9,21.29A13.234,13.234,0,0,1,31.369,16.7l3.887-3.921,4.308.967.957,2.947ZM33.517,7.406l.685,4.282-2.96,2.986A13.254,13.254,0,0,1,33.517,7.406Zm8.87,10.115-1.341-4.128,3.512-2.551,3.512,2.551L46.727,17.52ZM57.9,14.733l-2.975-3.055.526-4.522A13.258,13.258,0,0,1,57.9,14.733ZM54.11,5.547l-.672,5.778-1.634.367-2.645.594L45.345,9.515V5.4L49.466,2.45A13.38,13.38,0,0,1,54.11,5.547ZM47.655,1.88,44.539,4.112,41.066,1.988a13.349,13.349,0,0,1,6.589-.108Zm-8.432.761,4.575,2.8V9.515l-2.69,1.954-1.123.816-4.3-.966L34.8,5.794A13.39,13.39,0,0,1,39.223,2.64ZM34.077,23.062l4.1.787,2.087,3.617A13.385,13.385,0,0,1,34.077,23.062Zm8.24,4.928-2.768-4.8,2.7-4.152H46.9l2.7,4.152-2.767,4.8a13.368,13.368,0,0,1-4.509,0Zm6.565-.524,2.086-3.616,4.082-.767A13.383,13.383,0,0,1,48.881,27.466Zm0,0" transform="translate(-23.702)"/><path class="a" d="M9.608,357.41l-9.4,9.4a.7.7,0,1,0,.986.987l9.4-9.4a.7.7,0,0,0-.987-.987Zm0,0" transform="translate(0 -332.286)"/><path class="a" d="M156.846,481.012a.7.7,0,1,0,.493.2A.7.7,0,0,0,156.846,481.012Zm0,0" transform="translate(-145.255 -447.455)"/></g></svg>