<svg xmlns="http://www.w3.org/2000/svg" width="41.831" height="25.479" viewBox="0 0 41.831 25.479"><defs><style>.a{fill:#ffffff;}</style></defs><g transform="translate(0 -44.685)"><g transform="translate(0 44.685)"><g transform="translate(0 0)"><path class="a" d="M162.9,237.3v.009c.006.087.015.173.024.259,0,.018,0,.036.006.054q.013.11.029.219c0,.011,0,.021,0,.032v0a7.579,7.579,0,0,0,1.665,3.712c.009.012.017.025.027.037a7.588,7.588,0,0,0,3.365,2.311l.034.012.164.053c.069.022.138.042.208.062l.119.032q.125.033.252.062l.078.017c.1.021.2.04.293.058l.038.006a7.626,7.626,0,0,0,3.022-.093h.008l.043-.011q.1-.025.206-.053l.071-.019c.079-.022.157-.046.235-.071l.078-.025c.08-.026.16-.054.239-.083l.043-.017q.115-.043.228-.09l.04-.017q.126-.053.249-.11l.042-.019q.126-.059.25-.123l.015-.008q.118-.062.234-.127l.038-.021q.111-.064.22-.131l.069-.043q.094-.059.185-.121l.106-.073.1-.071a7.625,7.625,0,0,0,1.425-1.329c.013-.016.025-.033.036-.05a7.575,7.575,0,0,0,1.619-3.655v0c0-.011,0-.021,0-.032q.016-.109.029-.219c0-.018,0-.036.006-.054.009-.086.018-.172.024-.259,0,0,0-.006,0-.009.006-.082.01-.164.014-.246,0-.02,0-.039,0-.059,0-.085,0-.17,0-.256s0-.17,0-.255c0-.023,0-.046,0-.069q0-.111-.012-.221c0-.012,0-.025,0-.037-.006-.08-.014-.159-.022-.239q0-.043-.01-.087-.01-.085-.022-.169c0-.035-.01-.07-.015-.1q-.015-.094-.032-.187c-.008-.042-.016-.084-.024-.125s-.013-.066-.021-.1q-.032-.151-.07-.3l0-.008q-.023-.088-.047-.174l0-.016a7.564,7.564,0,0,0-1.027-2.192c-.01-.014-.021-.026-.031-.04a7.642,7.642,0,0,0-3.892-2.91l-.019-.008-.062-.019-.157-.048-.137-.038-.159-.041-.093-.023q-.114-.027-.229-.05l-.075-.014q-.1-.019-.2-.036l-.059-.01q-.124-.019-.25-.034l-.066-.008c-.079-.009-.158-.017-.238-.023l-.027,0c-.087-.007-.174-.012-.262-.015l-.064,0c-.089,0-.177-.005-.267-.005s-.178,0-.267.005l-.064,0c-.088,0-.175.009-.262.015l-.027,0c-.08.006-.159.014-.238.023l-.066.008q-.126.015-.25.034l-.059.01-.2.036-.075.014q-.115.023-.229.05l-.093.023-.159.041-.137.038-.157.048-.062.019-.019.008a7.641,7.641,0,0,0-3.892,2.91c-.01.013-.021.025-.031.039a7.567,7.567,0,0,0-1.024,2.182l-.009.032c-.015.055-.03.109-.045.164l-.01.042q-.033.131-.061.263c-.008.037-.016.073-.023.11s-.016.079-.023.119c-.012.068-.024.137-.035.206,0,.028-.008.056-.012.084q-.013.087-.023.175c0,.028-.007.056-.01.084-.009.08-.016.16-.022.24,0,.012,0,.023,0,.035q-.008.111-.012.222c0,.023,0,.046,0,.068,0,.085,0,.169,0,.255s0,.171,0,.256c0,.02,0,.039,0,.059C162.891,237.14,162.9,237.223,162.9,237.3Zm3.649,4.455,1.28-.081.6,1.1A6.379,6.379,0,0,1,166.55,241.76Zm7.51.27-.017.011q-.114.076-.231.148l-.026.016q-.12.073-.244.141l-.046.025q-.1.056-.21.108l-.053.026-.036.017.453-1.076.966.161A6.442,6.442,0,0,1,174.061,242.029Zm2.327-7.721a6.331,6.331,0,0,1,.28.832l.007.029q.033.128.06.258l.013.063c.015.077.029.155.042.233,0,.025.008.05.012.075.012.081.022.163.031.246,0,.019,0,.038.007.058q.014.144.022.29l-.9-.884Zm-6.58-3.911.048-.005q.14-.014.281-.021l.06,0c.094,0,.189-.007.284-.007h.016c.1,0,.19,0,.284.007l.06,0q.141.008.281.021l.048.005.108.014-.789.642-.789-.642Zm-1.595.384,1.889,1.536a.613.613,0,0,0,.773,0l1.889-1.536a6.411,6.411,0,0,1,2.821,2.125l-.911,2.559a.613.613,0,0,0,.148.643L176.746,238a6.352,6.352,0,0,1-1.125,2.533l-2.247-.375a.613.613,0,0,0-.666.367l-1.049,2.494a6.393,6.393,0,0,1-1.171.109c-.165,0-.327-.008-.489-.021l-1.279-2.355a.615.615,0,0,0-.577-.319l-2.733.173a6.355,6.355,0,0,1-1.18-2.606l1.924-1.889a.613.613,0,0,0,.148-.643l-.911-2.559A6.41,6.41,0,0,1,168.213,230.782Zm-4.074,5.321c0-.02,0-.039.007-.059.009-.082.019-.163.031-.244,0-.026.008-.051.012-.077.012-.077.026-.154.041-.23l.014-.067q.027-.127.059-.253l.009-.035a6.327,6.327,0,0,1,.279-.83l.427,1.2-.9.884Q164.125,236.246,164.139,236.1Z" transform="translate(-149.573 -221.96)"/><path class="a" d="M216.8,285.443a.613.613,0,0,0,.556.355h2.705a.613.613,0,0,0,.556-.355l1.353-2.922a.613.613,0,0,0-.155-.721l-2.706-2.343a.613.613,0,0,0-.8,0L215.6,281.8a.613.613,0,0,0-.155.721Zm1.909-4.712,1.956,1.693-.995,2.148h-1.922l-.994-2.148Z" transform="translate(-197.791 -268.034)"/><path class="a" d="M41.218,148.582a.613.613,0,0,0-.613.613v16.377H39.331v-21.14a.613.613,0,0,0-.613-.613H3.113a.613.613,0,0,0-.613.613v21.14H1.226v-21.19a1.84,1.84,0,0,1,1.837-1.838h35.7a1.84,1.84,0,0,1,1.838,1.838v2.688a.613.613,0,0,0,1.226,0v-2.688a3.067,3.067,0,0,0-3.063-3.063H3.063A3.067,3.067,0,0,0,0,144.382v21.8a.613.613,0,0,0,.613.613h2.5a.613.613,0,0,0,.613-.613v-21.14H38.105v21.14a.613.613,0,0,0,.613.613h2.5a.613.613,0,0,0,.613-.613v-16.99A.613.613,0,0,0,41.218,148.582Z" transform="translate(0 -141.319)"/></g></g></g></svg>