<svg xmlns="http://www.w3.org/2000/svg" width="43.515" height="38.415" viewBox="0 0 43.515 38.415"><defs><style>.a{fill:#fff;}</style></defs><path class="a" d="M30.511,0H21.757a13.018,13.018,0,0,0-13,13c0,.039,0,.078,0,.117A13,13,0,0,0,13,38.415h9.6a13.018,13.018,0,0,0,13-13c0-.148,0-.295-.008-.441A13,13,0,0,0,30.511,0Zm4.5,21.494a13.026,13.026,0,0,0-12.4-9.086H15.582c-.019.2-.029.394-.029.595a6.163,6.163,0,0,0,.673,2.8h6.381a9.6,9.6,0,1,1,0,19.207H13A9.6,9.6,0,0,1,9.252,16.572a13.027,13.027,0,0,0,12.506,9.435h7.025c.019-.2.029-.394.029-.595a6.163,6.163,0,0,0-.673-2.8H21.757a9.6,9.6,0,1,1,0-19.207h8.754a9.607,9.607,0,0,1,4.5,18.095Zm0,0"/></svg>