<svg xmlns="http://www.w3.org/2000/svg" width="51.057" height="51.057" viewBox="0 0 51.057 51.057"><defs><style>.a{fill:#fff;}</style></defs><g transform="translate(9.274 13.048)"><path class="a" d="M94,130.845a1,1,0,0,0-1,1v.047a1,1,0,1,0,1.994,0v-.047A1,1,0,0,0,94,130.845Z" transform="translate(-93.001 -130.845)"/></g><path class="a" d="M50.676,11.489,41.4,4.2l-.021-.015c-.018-.014-.037-.027-.057-.04l-.032-.019-.061-.033-.017-.009L32.838.1,32.823.091c-.022-.01-.045-.019-.068-.028l-.03-.011C32.7.044,32.675.037,32.65.031L32.622.023C32.6.018,32.568.013,32.541.01l-.024,0A.977.977,0,0,0,32.409,0H18.648a1,1,0,0,0-.107.006l-.024,0c-.027,0-.055.008-.081.014l-.028.007c-.025.006-.05.013-.075.021L18.3.063c-.023.009-.046.018-.068.028L18.219.1,9.842,4.086l-.017.009-.061.033-.032.019c-.019.012-.038.026-.057.04L9.655,4.2.381,11.489A1,1,0,0,0,0,12.273V27.979a1,1,0,0,0,1,1H9.274V50.059a1,1,0,0,0,1,1H40.785a1,1,0,0,0,1-1V28.977h8.277a1,1,0,0,0,1-1V12.273A1,1,0,0,0,50.676,11.489Zm-25.721-9.5H26.1V4.334H24.955Zm-5.31,0h3.316V5.331a1,1,0,0,0,1,1H27.1a1,1,0,0,0,1-1V1.994h3.316V4.587a5.883,5.883,0,1,1-11.767,0ZM9.274,26.982H1.994V25.91h7.28Zm30.514,22.08H11.268V47.99h28.52Zm9.274-22.08h-7.28V25.91h7.28Zm0-3.066h-7.28v-.069a1,1,0,0,0-1.994,0V46H11.268v-29a1,1,0,1,0-1.994,0v6.923H1.994V12.758l7.28-5.72v2.08a1,1,0,0,0,1.994,0v-3.5L17.65,2.577V4.587a7.878,7.878,0,1,0,15.756,0V2.577l6.382,3.039V15.973a1,1,0,0,0,1.994,0V7.038l7.28,5.72Z"/><g transform="translate(39.788 17.876)"><path class="a" d="M400,179.259a1,1,0,0,0-1,1v.047a1,1,0,0,0,1.994,0v-.047A1,1,0,0,0,400,179.259Z" transform="translate(-399.001 -179.259)"/></g></svg>