<svg id="paper-plane" xmlns="http://www.w3.org/2000/svg" width="31.207" height="32.007" viewBox="0 0 31.207 32.007">
  <g id="Group_2570" data-name="Group 2570" transform="translate(0 0)">
    <path id="Path_3234" data-name="Path 3234" d="M30.9.131A.693.693,0,0,0,30.146.1L.358,17.554a.732.732,0,0,0-.354.7.723.723,0,0,0,.481.618l8.9,3.041,3.429,9.613a.71.71,0,0,0,.666.477.632.632,0,0,0,.082,0,.7.7,0,0,0,.467-.275l.007.006,5.046-6.5L26.018,27.6a.68.68,0,0,0,.224.038.7.7,0,0,0,.366-.1.725.725,0,0,0,.334-.5L31.2.847A.734.734,0,0,0,30.9.131ZM2.439,18.01l23.6-13.832L9.743,20.507ZM13.9,22.458a.74.74,0,0,0-.134.345l-.641,5.386-2.376-6.66L24.624,7.63Zm.58,6.355.589-4.951,2.571.879Zm11.2-2.857L15.626,22.519,29.314,3.587Z" transform="translate(0 0)" fill="#fff"/>
  </g>
</svg>
