<svg xmlns="http://www.w3.org/2000/svg" width="21.468" height="37.045" viewBox="0 0 21.468 37.045"><defs><style>.a{fill:#fff;stroke:#fff;stroke-width:0.7px;}</style></defs><path class="a" d="M18.461,10.442V1.731A1.733,1.733,0,0,0,16.73,0h-15A1.733,1.733,0,0,0,0,1.731V19.038a1.733,1.733,0,0,0,1.731,1.731H3.461v8.951a4.014,4.014,0,0,0,1.183,2.855L5.769,33.7v2.646H17.307V33.731l2.008-1.674a4.029,4.029,0,0,0,1.453-3.1V13.269A2.89,2.89,0,0,0,18.461,10.442Zm-17.307,8.6V1.731a.578.578,0,0,1,.577-.577h15a.578.578,0,0,1,.577.577v8.712A2.889,2.889,0,0,0,15,13.269v.421l-3.305-3.305,4.121-4.121L13.351,3.8,9.23,7.92,5.11,3.8,2.646,6.263l4.121,4.121L2.646,14.5,5.11,16.969,9.23,12.848l4.121,4.121L15,15.321v4.294H1.731A.578.578,0,0,1,1.154,19.038ZM14.184,14.5l-.832.832L9.23,11.217,5.11,15.337,4.277,14.5,8.4,10.384,4.277,6.263l.832-.832L9.23,9.552l4.121-4.121.832.832-4.121,4.121Zm5.431,14.449a2.876,2.876,0,0,1-1.038,2.216l-2.424,2.02v2H6.923v-1.97L5.46,31.759a2.867,2.867,0,0,1-.845-2.04V20.768h9.021a8.868,8.868,0,0,0-3.252,6.89v1.763h1.154V27.659a7.73,7.73,0,0,1,4.3-6.951l.319-.159V13.269a1.731,1.731,0,1,1,3.461,0Zm0,0" transform="translate(0.35 0.35)"/></svg>