<svg xmlns="http://www.w3.org/2000/svg" width="49.822" height="43.592" viewBox="0 0 49.822 43.592"><defs><style>.a{fill:#fff;}</style></defs><path class="a" d="M49.822,45.275h-8.46L32.474,30.462a1.557,1.557,0,0,0-2.67,1.6l7.927,13.211H12.092l7.927-13.211a1.557,1.557,0,0,0-2.67-1.6L8.46,45.275H0v3.114H3.379l3.955,21.1A4.673,4.673,0,0,0,11.926,73.3H37.9a4.67,4.67,0,0,0,4.59-3.81l3.957-21.1h3.379s0-3.114,0-3.114Zm-10.4,23.64a1.555,1.555,0,0,1-1.53,1.27H11.926A1.558,1.558,0,0,1,10.4,68.914L6.546,48.388H43.276L39.425,68.915Z" transform="translate(0 -29.706)"/></svg>