<svg xmlns="http://www.w3.org/2000/svg" width="55.071" height="33.001" viewBox="0 0 55.071 33.001">
  <path id="path5649" d="M20.459,0a1.669,1.669,0,0,0-1.852,1.862V25.183a.7.7,0,0,0,.779.74H22.1a1.67,1.67,0,0,0,1.854-1.865V.74A.7.7,0,0,0,23.176,0ZM6.308,7.951C2.171,7.951,0,10.347,0,13.4c0,2.715,1.671,4.369,5.009,5.113l5.328,1.192c1.083.244,1.42.549,1.42,1.1,0,.424-.337.763-1.315.763H2.181A1.662,1.662,0,0,0,.324,23.417v1.726a.693.693,0,0,0,.733.78H10.12c4.895,0,6.871-2.4,6.871-5.236,0-2.933-1.7-4.586-5.011-5.328l-5.33-1.195c-1.083-.242-1.418-.547-1.418-1.1,0-.422.336-.759,1.315-.759h7.928a1.665,1.665,0,0,0,1.855-1.852V8.731a.693.693,0,0,0-.733-.78Zm26.629,0a2.067,2.067,0,0,0-1.739.74l-6.916,7.426,6.2,9.04a1.35,1.35,0,0,0,1.2.766h3.7c.553,0,.874-.221.874-.686a1.237,1.237,0,0,0-.322-.733l-5.448-8.064,4.136-4.455,8.166,12.074-3.61,7.632a1.746,1.746,0,0,0-.215.657c0,.441.323.654.764.654H43a1.126,1.126,0,0,0,1.2-.767L54.854,9.267a1.653,1.653,0,0,0,.217-.659c0-.44-.32-.657-.763-.657h-3.3a1.126,1.126,0,0,0-1.2.771l-4.658,10.34-6.5-10.234a1.76,1.76,0,0,0-1.787-.877Z" fill="#de0000"/>
</svg>
