<svg id="telephone" xmlns="http://www.w3.org/2000/svg" width="31.949" height="32.475" viewBox="0 0 31.949 32.475">
  <path id="Path_3235" data-name="Path 3235" d="M229.761,387.578a.6.6,0,0,0,0,.9.742.742,0,0,0,.982,0,.6.6,0,0,0,0-.9A.741.741,0,0,0,229.761,387.578Zm0,0" transform="translate(-215.283 -362.821)" fill="#fff"/>
  <path id="Path_3236" data-name="Path 3236" d="M30.542,23.655,25.8,19.561a.641.641,0,0,0-.069-.052,3.069,3.069,0,0,0-3.885.433l-2.586,2.625a.616.616,0,0,1-.681.138,16.976,16.976,0,0,1-7.129-5.487,12.833,12.833,0,0,1-1.944-3.51.638.638,0,0,0-.038-.131.638.638,0,0,1,.136-.691l2.586-2.626a3.188,3.188,0,0,0,.426-3.945l-.02-.03L9.17,1.453A3.1,3.1,0,0,0,4.337.929l-.518.526h0L1.969,3.333C-.235,5.572-.6,8.935.927,13.061a32.3,32.3,0,0,0,7.35,10.891,31.913,31.913,0,0,0,11.016,7.6c3.55,1.317,7.326,1.479,10-1.235l1.743-1.77A3.2,3.2,0,0,0,30.542,23.655Zm-5.517-3.1,4.738,4.091a.616.616,0,0,0,.069.052,1.921,1.921,0,0,1,.318,2.951l-.129.132L21.94,21.639l.788-.8A1.841,1.841,0,0,1,25.025,20.557ZM8.127,2.15l.02.03L11.57,7.011a1.912,1.912,0,0,1-.265,2.352l-.764.776L5.074,1.975l.147-.149A1.857,1.857,0,0,1,8.127,2.15ZM19.721,30.362A30.657,30.657,0,0,1,9.16,23.055,31.022,31.022,0,0,1,2.1,12.616C1.163,10.088.537,6.581,2.853,4.23L4.174,2.888l5.468,8.164-.922.937a1.916,1.916,0,0,0-.428,2.019,14.16,14.16,0,0,0,2.02,3.784A18.372,18.372,0,0,0,18.1,23.877a1.848,1.848,0,0,0,2.041-.413l.905-.919,8.082,6.144-.722.732C25.926,31.942,22.314,31.324,19.721,30.362Zm0,0" transform="translate(-0.001 0)" fill="#fff"/>
  <path id="Path_3237" data-name="Path 3237" d="M102.294,259.43c-.733-.587-2-1.6-2.67-2.226a42.868,42.868,0,0,1-4.379-4.749.736.736,0,0,0-.966-.16.6.6,0,0,0-.175.883,44.2,44.2,0,0,0,4.525,4.911c.705.663,1.985,1.682,2.75,2.3a.741.741,0,0,0,.98-.059A.6.6,0,0,0,102.294,259.43Zm0,0" transform="translate(-88.318 -236.187)" fill="#fff"/>
</svg>
