<svg xmlns="http://www.w3.org/2000/svg" width="45.98" height="53.04" viewBox="0 0 45.98 53.04"><defs><style>.a{fill:#fff;}</style></defs><path class="a" d="M13.7,37.124c8.553,0,13.263-5.024,13.263-14.148,0-8.542-12.091-22.123-12.605-22.7a.912.912,0,0,0-1.316,0C12.528.854.438,14.434.438,22.976.438,32.1,5.148,37.124,13.7,37.124Zm0-34.9C16.232,5.191,25.2,16.186,25.2,22.976c0,5.647-1.995,12.379-11.495,12.379S2.206,28.623,2.206,22.976C2.206,16.186,11.169,5.191,13.7,2.22Zm0,0" transform="translate(-0.438 0)"/><path class="a" d="M280.4,166.962c5.057,0,7.958-3.375,7.958-9.262,0-5.527-7.013-13.125-7.311-13.446a.911.911,0,0,0-1.294,0c-.3.321-7.311,7.919-7.311,13.446C272.438,163.587,275.338,166.962,280.4,166.962Zm0-20.771c1.705,1.984,6.19,7.576,6.19,11.509,0,4.972-2.082,7.493-6.19,7.493s-6.19-2.521-6.19-7.493C274.206,153.768,278.69,148.176,280.4,146.191Zm0,0" transform="translate(-242.374 -128.07)"/><path class="a" d="M181.964,320.281c-.225.256-5.526,6.31-5.526,10.312,0,4.5,2.256,7.074,6.19,7.074s6.19-2.578,6.19-7.074c0-4-5.3-10.056-5.526-10.312a.913.913,0,0,0-1.326,0Zm.663,15.617c-2.933,0-4.421-1.785-4.421-5.305,0-2.4,2.767-6.316,4.421-8.354,1.655,2.034,4.421,5.947,4.421,8.354C187.048,334.113,185.56,335.9,182.627,335.9Zm0,0" transform="translate(-156.985 -284.627)"/><path class="a" d="M39.125,197.336a.858.858,0,0,0,.089,0,.884.884,0,0,0,.089-1.764,6.478,6.478,0,0,1-4.725-2.412c-2.352-3.066-1.573-8.009-1.566-8.059a.884.884,0,0,0-1.743-.29c-.039.234-.916,5.735,1.9,9.417A8.172,8.172,0,0,0,39.125,197.336Zm0,0" transform="translate(-27.719 -163.754)"/><path class="a" d="M329.322,263.115a6.156,6.156,0,0,0,4.325-1.863,5.285,5.285,0,0,0,.968-4.473.884.884,0,0,0-1.743.292,3.627,3.627,0,0,1-.568,3.03,4.4,4.4,0,0,1-2.982,1.245.884.884,0,0,0,0,1.768Zm0,0" transform="translate(-292.184 -227.76)"/><path class="a" d="M208.672,410.615a1.014,1.014,0,0,1-.488-1.466.885.885,0,0,0-1.583-.791,2.783,2.783,0,0,0,1.28,3.844.885.885,0,1,0,.791-1.583Zm0,0" transform="translate(-183.519 -362.788)"/></svg>