<svg xmlns="http://www.w3.org/2000/svg" width="96.817" height="96.369" viewBox="0 0 96.817 96.369"><path d="M96.489,24.972,84.735,2.7A2.836,2.836,0,0,0,80.9,1.513l-32.5,17.129a2.837,2.837,0,0,0-1.188,3.83l2.994,5.69L40.166,33.444l-2.989-5.68a2.837,2.837,0,0,0-3.833-1.188L17.672,34.845A33.051,33.051,0,0,0,4.638,80.971L2.508,83.1A8.47,8.47,0,0,0,14.487,95.078l2.207-2.206A33.128,33.128,0,0,0,64.846,54.749,11.1,11.1,0,0,1,70.5,41.782L95.3,28.809a2.838,2.838,0,0,0,1.194-3.837ZM10.477,91.066a2.8,2.8,0,1,1-3.96-3.953l1.458-1.458a32.762,32.762,0,0,0,3.977,3.935Zm57.4-54.315a16.776,16.776,0,0,0-8.473,19.6A27.417,27.417,0,1,1,20.317,39.863L33.48,32.919,36.466,38.6a2.836,2.836,0,0,0,3.83,1.19l15.069-7.922a2.838,2.838,0,0,0,1.19-3.832l-3-5.692L81.041,7.853l9.1,17.249Z" transform="translate(0 -1.185)"/><path d="M110.424,243.769a18.593,18.593,0,0,0-25.467-7.638,19.247,19.247,0,0,0-8.219,25.6,18.593,18.593,0,0,0,25.467,7.638A19.248,19.248,0,0,0,110.424,243.769Zm-10.9,20.6a12.927,12.927,0,0,1-17.746-5.24,13.55,13.55,0,0,1,5.858-17.994,12.927,12.927,0,0,1,17.746,5.24h0A13.55,13.55,0,0,1,99.525,264.365Z" transform="translate(-60.559 -189.839)"/><path d="M157.427,19.863a2.836,2.836,0,1,0,5.02-2.642l-4.193-7.969a2.836,2.836,0,1,0-5.02,2.642Z" transform="translate(-123.993 -6.497)"/><path d="M101.316,86.016l8.562,1.86a2.836,2.836,0,0,0,1.2-5.544l-8.562-1.86a2.836,2.836,0,0,0-1.2,5.544Z" transform="translate(-80.346 -65.427)"/><path d="M227.521,17.62a2.836,2.836,0,0,0,3.7-1.55l3.37-8.23a2.836,2.836,0,1,0-5.249-2.15l-3.37,8.23A2.836,2.836,0,0,0,227.521,17.62Z" transform="translate(-183.069 -3.409)"/></svg>