<svg xmlns="http://www.w3.org/2000/svg" width="40.945" height="31.188" viewBox="0 0 40.945 31.188">
  <g id="Group_2639" data-name="Group 2639" transform="translate(-164.365 -9773.757)">
    <path id="Path_3064" data-name="Path 3064" d="M6,31.188H34.947a6,6,0,0,0,6-6V6a6,6,0,0,0-6-6H6A6,6,0,0,0,0,6V25.19A6,6,0,0,0,6,31.188ZM2.4,6A3.6,3.6,0,0,1,6,2.4H34.947a3.6,3.6,0,0,1,3.6,3.6V25.19a3.6,3.6,0,0,1-3.6,3.6H6a3.6,3.6,0,0,1-3.6-3.6Zm0,0" transform="translate(164.365 9773.757)" fill="#fff"/>
    <path id="Path_3065" data-name="Path 3065" d="M181,94.508v16.306l14.435-8.287Zm2.4,4.077,7.157,3.976L183.4,106.67Zm0,0" transform="translate(-2.16 9686.807)" fill="#fff"/>
  </g>
</svg>
